HIERARCHY
ROOT Hips
{
	OFFSET -14.64140 90.27770 -84.91600
	CHANNELS 6 Xposition Yposition Zposition Zrotation Xrotation Yrotation
	JOINT Spine
	{
		OFFSET 0.00000 13.20850 -1.60436
		CHANNELS 3 Zrotation Xrotation Yrotation
		JOINT Spine1
		{
			OFFSET 0.00000 8.61716 0.00000
			CHANNELS 3 Zrotation Xrotation Yrotation
			JOINT Spine2
			{
				OFFSET 0.00000 8.61717 0.00000
				CHANNELS 3 Zrotation Xrotation Yrotation
				JOINT Spine3
				{
					OFFSET 0.00000 8.61717 0.00000
					CHANNELS 3 Zrotation Xrotation Yrotation
					JOINT Neck
					{
						OFFSET 0.00000 11.07920 1.10792
						CHANNELS 3 Zrotation Xrotation Yrotation
						JOINT Neck1
						{
							OFFSET 0.00000 7.08032 0.00000
							CHANNELS 3 Zrotation Xrotation Yrotation
							JOINT Head
							{
								OFFSET 0.00000 7.08031 0.00000
								CHANNELS 3 Zrotation Xrotation Yrotation
								End site
								{
									OFFSET 0.00000 0.00000 0.00000
								}
							}
						}
					}
					JOINT RightShoulder
					{
						OFFSET -0.01000 7.91373 5.19711
						CHANNELS 3 Zrotation Xrotation Yrotation
						JOINT RightArm
						{
							OFFSET -18.41580 0.00000 0.00000
							CHANNELS 3 Zrotation Xrotation Yrotation
							JOINT RightForeArm
							{
								OFFSET -29.11090 0.00000 0.00000
								CHANNELS 3 Zrotation Xrotation Yrotation
								JOINT RightHand
								{
									OFFSET -24.65040 0.00000 0.00000
									CHANNELS 3 Zrotation Xrotation Yrotation
									JOINT RightHandThumb1
									{
										OFFSET -5.35114 -0.85590 3.97906
										CHANNELS 3 Zrotation Xrotation Yrotation
										JOINT RightHandThumb2
										{
											OFFSET -4.52789 0.00000 0.00000
											CHANNELS 3 Zrotation Xrotation Yrotation
											JOINT RightHandThumb3
											{
												OFFSET -2.46976 0.00000 0.00000
												CHANNELS 3 Zrotation Xrotation Yrotation
												End site
												{
													OFFSET 0.00000 0.00000 0.00000
												}
											}
										}
									}
									JOINT RightHandIndex1
									{
										OFFSET -14.26970 0.00000 2.88139
										CHANNELS 3 Zrotation Xrotation Yrotation
										JOINT RightHandIndex2
										{
											OFFSET -5.48836 0.00000 0.00000
											CHANNELS 3 Zrotation Xrotation Yrotation
											JOINT RightHandIndex3
											{
												OFFSET -3.01859 0.00000 0.00000
												CHANNELS 3 Zrotation Xrotation Yrotation
												End site
												{
													OFFSET 0.00000 0.00000 0.00000
												}
											}
										}
									}
									JOINT RightHandMiddle1
									{
										OFFSET -14.26970 0.00000 -0.09147
										CHANNELS 3 Zrotation Xrotation Yrotation
										JOINT RightHandMiddle2
										{
											OFFSET -6.17441 0.00000 0.00000
											CHANNELS 3 Zrotation Xrotation Yrotation
											JOINT RightHandMiddle3
											{
												OFFSET -3.56743 0.00000 0.00000
												CHANNELS 3 Zrotation Xrotation Yrotation
												End site
												{
													OFFSET 0.00000 0.00000 0.00000
												}
											}
										}
									}
									JOINT RightHandRing1
									{
										OFFSET -12.69180 0.00000 -3.06433
										CHANNELS 3 Zrotation Xrotation Yrotation
										JOINT RightHandRing2
										{
											OFFSET -5.62556 0.00000 0.00000
											CHANNELS 3 Zrotation Xrotation Yrotation
											JOINT RightHandRing3
											{
												OFFSET -3.56744 0.00000 0.00000
												CHANNELS 3 Zrotation Xrotation Yrotation
												End site
												{
													OFFSET 0.00000 0.00000 0.00000
												}
											}
										}
									}
									JOINT RightHandPinky1
									{
										OFFSET -11.11390 0.00000 -6.03719
										CHANNELS 3 Zrotation Xrotation Yrotation
										JOINT RightHandPinky2
										{
											OFFSET -4.52789 0.00000 0.00000
											CHANNELS 3 Zrotation Xrotation Yrotation
											JOINT RightHandPinky3
											{
												OFFSET -2.46976 0.00000 0.00000
												CHANNELS 3 Zrotation Xrotation Yrotation
												End site
												{
													OFFSET 0.00000 0.00000 0.00000
												}
											}
										}
									}
								}
							}
						}
					}
					JOINT LeftShoulder
					{
						OFFSET 0.01000 7.91373 5.19711
						CHANNELS 3 Zrotation Xrotation Yrotation
						JOINT LeftArm
						{
							OFFSET 18.41580 0.00000 0.00000
							CHANNELS 3 Zrotation Xrotation Yrotation
							JOINT LeftForeArm
							{
								OFFSET 29.11090 0.00000 0.00000
								CHANNELS 3 Zrotation Xrotation Yrotation
								JOINT LeftHand
								{
									OFFSET 24.65040 0.00000 0.00000
									CHANNELS 3 Zrotation Xrotation Yrotation
									JOINT LeftHandThumb1
									{
										OFFSET 5.35114 -0.85590 3.97906
										CHANNELS 3 Zrotation Xrotation Yrotation
										JOINT LeftHandThumb2
										{
											OFFSET 4.52789 0.00000 0.00000
											CHANNELS 3 Zrotation Xrotation Yrotation
											JOINT LeftHandThumb3
											{
												OFFSET 2.46977 0.00000 0.00000
												CHANNELS 3 Zrotation Xrotation Yrotation
												End site
												{
													OFFSET 0.00000 0.00000 0.00000
												}
											}
										}
									}
									JOINT LeftHandIndex1
									{
										OFFSET 14.26970 0.00000 2.88139
										CHANNELS 3 Zrotation Xrotation Yrotation
										JOINT LeftHandIndex2
										{
											OFFSET 5.48836 0.00000 0.00000
											CHANNELS 3 Zrotation Xrotation Yrotation
											JOINT LeftHandIndex3
											{
												OFFSET 3.01859 0.00000 0.00000
												CHANNELS 3 Zrotation Xrotation Yrotation
												End site
												{
													OFFSET 0.00000 0.00000 0.00000
												}
											}
										}
									}
									JOINT LeftHandMiddle1
									{
										OFFSET 14.26970 0.00000 -0.09147
										CHANNELS 3 Zrotation Xrotation Yrotation
										JOINT LeftHandMiddle2
										{
											OFFSET 6.17440 0.00000 0.00000
											CHANNELS 3 Zrotation Xrotation Yrotation
											JOINT LeftHandMiddle3
											{
												OFFSET 3.56744 0.00000 0.00000
												CHANNELS 3 Zrotation Xrotation Yrotation
												End site
												{
													OFFSET 0.00000 0.00000 0.00000
												}
											}
										}
									}
									JOINT LeftHandRing1
									{
										OFFSET 12.69180 0.00000 -3.06433
										CHANNELS 3 Zrotation Xrotation Yrotation
										JOINT LeftHandRing2
										{
											OFFSET 5.62556 0.00000 0.00000
											CHANNELS 3 Zrotation Xrotation Yrotation
											JOINT LeftHandRing3
											{
												OFFSET 3.56744 0.00000 0.00000
												CHANNELS 3 Zrotation Xrotation Yrotation
												End site
												{
													OFFSET 0.00000 0.00000 0.00000
												}
											}
										}
									}
									JOINT LeftHandPinky1
									{
										OFFSET 11.11390 0.00000 -6.03719
										CHANNELS 3 Zrotation Xrotation Yrotation
										JOINT LeftHandPinky2
										{
											OFFSET 4.52789 0.00000 0.00000
											CHANNELS 3 Zrotation Xrotation Yrotation
											JOINT LeftHandPinky3
											{
												OFFSET 2.46976 0.00000 0.00000
												CHANNELS 3 Zrotation Xrotation Yrotation
												End site
												{
													OFFSET 0.00000 0.00000 0.00000
												}
											}
										}
									}
								}
							}
						}
					}
					JOINT pCube4
					{
						OFFSET 0.00000 10.91090 1.10792
						CHANNELS 3 Zrotation Xrotation Yrotation
						End site
						{
							OFFSET 0.00000 0.00000 0.00000
						}
					}
				}
			}
		}
	}
	JOINT RightUpLeg
	{
		OFFSET -9.98441 0.00000 0.00000
		CHANNELS 3 Zrotation Xrotation Yrotation
		JOINT RightLeg
		{
			OFFSET 0.00000 -42.11790 0.00000
			CHANNELS 3 Zrotation Xrotation Yrotation
			JOINT RightFoot
			{
				OFFSET 0.00000 -45.00020 -0.00001
				CHANNELS 3 Zrotation Xrotation Yrotation
				JOINT RightForeFoot
				{
					OFFSET 0.00000 -3.74820 0.00000
					CHANNELS 3 Zrotation Xrotation Yrotation
					JOINT RightToeBase
					{
						OFFSET 0.00000 0.06325 14.43120
						CHANNELS 3 Zrotation Xrotation Yrotation
						End site
						{
							OFFSET 0.00000 0.00000 0.00000
						}
					}
				}
			}
		}
	}
	JOINT LeftUpLeg
	{
		OFFSET 9.98441 0.00000 0.00000
		CHANNELS 3 Zrotation Xrotation Yrotation
		JOINT LeftLeg
		{
			OFFSET 0.00000 -42.11800 0.00000
			CHANNELS 3 Zrotation Xrotation Yrotation
			JOINT LeftFoot
			{
				OFFSET 0.00000 -45.00070 0.00000
				CHANNELS 3 Zrotation Xrotation Yrotation
				JOINT LeftForeFoot
				{
					OFFSET 0.00000 -3.74824 0.00000
					CHANNELS 3 Zrotation Xrotation Yrotation
					JOINT LeftToeBase
					{
						OFFSET 0.00000 0.06325 14.43110
						CHANNELS 3 Zrotation Xrotation Yrotation
						End site
						{
							OFFSET 0.00000 0.00000 0.00000
						}
					}
				}
			}
		}
	}
}
MOTION
Frames: 4
Frame Time: 0.050000
0.0 0.0 0.0 0.0 0.0 0.0 5.918828775600425 3.0385194565676175 -2.3713439460700267 -0.7056652468401862 3.4197113132837007 0.37647095920103507 -0.5146160765252056 -1.0087531852392895 0.5949824540836808 -0.22967860930771636 -0.5042854775210922 -0.28873539521821556 0.20870978613808 11.296685023607228 -1.701017534721878 0.44669977228446234 -0.6495914970338003 -3.2025045459395707 1.012013981875063 -16.961258258260177 -0.3092036583778245 -9.277574457066931 3.329802956734081 -18.854417758742034 80.40293254333687 1.5704058954341442 -3.447324394889868 0.5789109886046764 7.674516823635219 56.16121108767901 17.593398156088192 -0.33084822468308395 -2.8853248938686527 4.52871 -0.12703 -1.59312 -4.64595e-06 9.01534e-06 -56.2342 8.23465e-06 -9.55045e-07 -56.2342 -38.7697 2.616e-06 -3.03728e-06 1.51694e-05 2.54582e-06 3.19778e-06 -3.36779e-06 6.40269e-06 -1.74067e-06 -36.6938 -3.44578e-06 4.82161e-06 1.03628e-05 2.25643e-06 -1.00237e-06 -1.59028e-15 3.18055e-15 1.90833e-14 -19.7583 1.99729e-06 9.82298e-07 1.19088e-05 -1.70535e-06 -1.47446e-06 -7.95139e-16 3.57812e-15 3.18055e-15 24.0542 -1.29415e-06 -2.03572e-07 28.8651 4.69993e-06 -2.49464e-06 28.8651 4.67541e-06 2.50252e-06 8.636155140929755 2.2255739571002016 15.415209435144243 -75.68680539567953 15.308286031201833 -5.604009724598751 3.1932838615586663 8.265560972221328 -44.557382956500746 -20.020228652676913 -0.21099191192812902 1.049076594844219 -0.474211 0.0677175 -8.12381 -7.57701e-06 -7.52602e-07 44.5675 -2.34874e-06 -9.76287e-07 44.5675 12.4601 -8.06117e-07 4.96022e-06 -1.98259e-05 -5.83324e-07 -1.40447e-07 -3.18055e-15 1.59028e-15 -9.54166e-15 11.1059 -5.13129e-07 -3.38467e-06 3.12111e-07 1.50825e-07 1.16352e-06 5.56875e-08 -1.53149e-07 -1.37717e-07 4.77241 1.48801e-06 -1.13665e-06 -2.79682e-07 7.26536e-07 7.29834e-07 -1.95777e-07 5.08575e-07 5.10883e-07 -5.60077 7.82297e-07 -2.03231e-07 -6.72092 -3.47366e-06 4.68464e-06 -6.72092 -1.30631e-08 -7.87263e-07 -1.19271e-15 1.09925e-15 -3.18055e-15 8.04465 3.49397 -19.2195 -2.21424e-05 10.395 0.0142586 -5.62103 -15.6599 3.19225 3.97569e-16 7.95139e-16 -1.59028e-15 1.81331e-08 4.69756 -4.30096e-07 12.4594 -8.23857 6.88324 1.34357e-05 46.3794 0.00174233 -4.32522 -14.7485 -3.83531 3.18055e-15 -3.18055e-15 9.54166e-15 1.35867e-07 -10.745 -2.59575e-06
0.0 0.0 0.0 0.0 0.0 0.0 5.7926776883295235 3.009119617067524 -2.3553969668143013 -0.7242882685004326 3.448169101718694 0.3804475581845756 -0.5366791591508078 -1.0367054997186227 0.6494861001924406 -0.24643291221603317 -0.501721699234342 -0.28234890026995285 0.20195554455853082 11.485541754642105 -1.720707269881578 0.45192296901196616 -0.6276331586263005 -3.3128889237076984 1.0319134215808832 -16.959919291734163 -0.319720307597223 -9.468142959884045 3.3508027590581766 -18.960135472467762 79.33711156710507 1.1956963021202973 -3.455950595911665 1.5780625288472883 7.310771685947746 59.14322955743423 17.261027397688242 -0.3551050583033445 -2.9701476539782856 4.52871 -0.12703 -1.59312 -4.64595e-06 9.01534e-06 -56.2342 8.23465e-06 -9.55045e-07 -56.2342 -38.7697 2.616e-06 -3.03728e-06 1.51694e-05 2.54582e-06 3.19778e-06 -3.36779e-06 6.40269e-06 -1.74067e-06 -36.6938 -3.44578e-06 4.82161e-06 1.03628e-05 2.25643e-06 -1.00237e-06 -1.59028e-15 3.18055e-15 1.90833e-14 -19.7583 1.99729e-06 9.82298e-07 1.19088e-05 -1.70535e-06 -1.47446e-06 -7.95139e-16 3.57812e-15 3.18055e-15 24.0542 -1.29415e-06 -2.03572e-07 28.8651 4.69993e-06 -2.49464e-06 28.8651 4.67541e-06 2.50252e-06 8.843133541016842 2.241367450965173 15.609336014755717 -75.03841529782441 14.355058408896904 -5.594564797356409 2.4019532292855885 8.190619034608968 -45.51408622002418 -19.855489458877983 -0.29784351828267186 0.9606428225778882 -0.474211 0.0677175 -8.12381 -7.57701e-06 -7.52602e-07 44.5675 -2.34874e-06 -9.76287e-07 44.5675 12.4601 -8.06117e-07 4.96022e-06 -1.98259e-05 -5.83324e-07 -1.40447e-07 -3.18055e-15 1.59028e-15 -9.54166e-15 11.1059 -5.13129e-07 -3.38467e-06 3.12111e-07 1.50825e-07 1.16352e-06 5.56875e-08 -1.53149e-07 -1.37717e-07 4.77241 1.48801e-06 -1.13665e-06 -2.79682e-07 7.26536e-07 7.29834e-07 -1.95777e-07 5.08575e-07 5.10883e-07 -5.60077 7.82297e-07 -2.03231e-07 -6.72092 -3.47366e-06 4.68464e-06 -6.72092 -1.30631e-08 -7.87263e-07 -1.19271e-15 1.09925e-15 -3.18055e-15 8.04465 3.49397 -19.2195 -2.21424e-05 10.395 0.0142586 -5.62103 -15.6599 3.19225 3.97569e-16 7.95139e-16 -1.59028e-15 1.81331e-08 4.69756 -4.30096e-07 12.4594 -8.23857 6.88324 1.34357e-05 46.3794 0.00174233 -4.32522 -14.7485 -3.83531 3.18055e-15 -3.18055e-15 9.54166e-15 1.35867e-07 -10.745 -2.59575e-06
0.0 0.0 0.0 0.0 0.0 0.0 5.582976945268737 2.9891318342706668 -2.3248128092665867 -0.7411380920411582 3.4805612802363366 0.3846386338268319 -0.5656879260576693 -1.0714088556158792 0.7294238543558799 -0.2875229329003393 -0.49607131593928533 -0.27323979055773634 0.19983319023603935 11.732022745639622 -1.7354874281221693 0.45474892221560304 -0.6094063398898795 -3.440418885686393 1.0500117548483852 -16.9673398788818 -0.3318608894690154 -9.646501831031197 3.371361605121361 -19.0332529462923 78.05496873957222 0.806568192646062 -2.9426227070800333 3.356169574049377 7.052103173461208 63.90970300520151 17.116067933915264 -0.39930106097694296 -3.3041342662220456 4.52871 -0.12703 -1.59312 -4.64595e-06 9.01534e-06 -56.2342 8.23465e-06 -9.55045e-07 -56.2342 -38.7697 2.616e-06 -3.03728e-06 1.51694e-05 2.54582e-06 3.19778e-06 -3.36779e-06 6.40269e-06 -1.74067e-06 -36.6938 -3.44578e-06 4.82161e-06 1.03628e-05 2.25643e-06 -1.00237e-06 -1.59028e-15 3.18055e-15 1.90833e-14 -19.7583 1.99729e-06 9.82298e-07 1.19088e-05 -1.70535e-06 -1.47446e-06 -7.95139e-16 3.57812e-15 3.18055e-15 24.0542 -1.29415e-06 -2.03572e-07 28.8651 4.69993e-06 -2.49464e-06 28.8651 4.67541e-06 2.50252e-06 8.997311099372416 2.2479981725796296 15.784391073669347 -74.43628707831783 13.660298817421406 -5.658997396194104 1.360788877647529 8.15847390968124 -46.67298106229583 -19.833879889940356 -0.23098650522551745 0.752638520173982 -0.474211 0.0677175 -8.12381 -7.57701e-06 -7.52602e-07 44.5675 -2.34874e-06 -9.76287e-07 44.5675 12.4601 -8.06117e-07 4.96022e-06 -1.98259e-05 -5.83324e-07 -1.40447e-07 -3.18055e-15 1.59028e-15 -9.54166e-15 11.1059 -5.13129e-07 -3.38467e-06 3.12111e-07 1.50825e-07 1.16352e-06 5.56875e-08 -1.53149e-07 -1.37717e-07 4.77241 1.48801e-06 -1.13665e-06 -2.79682e-07 7.26536e-07 7.29834e-07 -1.95777e-07 5.08575e-07 5.10883e-07 -5.60077 7.82297e-07 -2.03231e-07 -6.72092 -3.47366e-06 4.68464e-06 -6.72092 -1.30631e-08 -7.87263e-07 -1.19271e-15 1.09925e-15 -3.18055e-15 8.04465 3.49397 -19.2195 -2.21424e-05 10.395 0.0142586 -5.62103 -15.6599 3.19225 3.97569e-16 7.95139e-16 -1.59028e-15 1.81331e-08 4.69756 -4.30096e-07 12.4594 -8.23857 6.88324 1.34357e-05 46.3794 0.00174233 -4.32522 -14.7485 -3.83531 3.18055e-15 -3.18055e-15 9.54166e-15 1.35867e-07 -10.745 -2.59575e-06
0.0 0.0 0.0 0.0 0.0 0.0 5.318864470202673 2.9884476893089285 -2.2836059578147165 -0.7531222293630092 3.51151137767375 0.38813253225082944 -0.5984163738491832 -1.105601277632086 0.8120041818157907 -0.3377694958788886 -0.48774160281348694 -0.2649110322833536 0.21315518390047897 11.984816937459335 -1.7671053785052901 0.45783206717246816 -0.606193154805151 -3.6161167437739263 1.0753215876038387 -16.994160301982127 -0.348634836376341 -9.783683561452545 3.386738849270345 -19.059460380685504 76.8739164534566 0.430033938998392 -1.9828794790610704 5.143154575923767 6.859624443580634 68.76393327941815 17.28174435031358 -0.45084374663636667 -3.8230048591802372 4.52871 -0.12703 -1.59312 -4.64595e-06 9.01534e-06 -56.2342 8.23465e-06 -9.55045e-07 -56.2342 -38.7697 2.616e-06 -3.03728e-06 1.51694e-05 2.54582e-06 3.19778e-06 -3.36779e-06 6.40269e-06 -1.74067e-06 -36.6938 -3.44578e-06 4.82161e-06 1.03628e-05 2.25643e-06 -1.00237e-06 -1.59028e-15 3.18055e-15 1.90833e-14 -19.7583 1.99729e-06 9.82298e-07 1.19088e-05 -1.70535e-06 -1.47446e-06 -7.95139e-16 3.57812e-15 3.18055e-15 24.0542 -1.29415e-06 -2.03572e-07 28.8651 4.69993e-06 -2.49464e-06 28.8651 4.67541e-06 2.50252e-06 9.051959918423657 2.2419286615486853 15.896938990419427 -74.02405023954286 13.229117460873148 -5.808707587029595 0.394972928802481 8.277431191766597 -47.467845541719946 -19.97013917662273 -0.005722885803070651 0.47590558256582227 -0.474211 0.0677175 -8.12381 -7.57701e-06 -7.52602e-07 44.5675 -2.34874e-06 -9.76287e-07 44.5675 12.4601 -8.06117e-07 4.96022e-06 -1.98259e-05 -5.83324e-07 -1.40447e-07 -3.18055e-15 1.59028e-15 -9.54166e-15 11.1059 -5.13129e-07 -3.38467e-06 3.12111e-07 1.50825e-07 1.16352e-06 5.56875e-08 -1.53149e-07 -1.37717e-07 4.77241 1.48801e-06 -1.13665e-06 -2.79682e-07 7.26536e-07 7.29834e-07 -1.95777e-07 5.08575e-07 5.10883e-07 -5.60077 7.82297e-07 -2.03231e-07 -6.72092 -3.47366e-06 4.68464e-06 -6.72092 -1.30631e-08 -7.87263e-07 -1.19271e-15 1.09925e-15 -3.18055e-15 8.04465 3.49397 -19.2195 -2.21424e-05 10.395 0.0142586 -5.62103 -15.6599 3.19225 3.97569e-16 7.95139e-16 -1.59028e-15 1.81331e-08 4.69756 -4.30096e-07 12.4594 -8.23857 6.88324 1.34357e-05 46.3794 0.00174233 -4.32522 -14.7485 -3.83531 3.18055e-15 -3.18055e-15 9.54166e-15 1.35867e-07 -10.745 -2.59575e-06
